<?xml version="1.0" encoding="UTF-8" standalone="no"?>
<svg xmlns="http://www.w3.org/2000/svg" xmlns:xlink="http://www.w3.org/1999/xlink" version="1.1">
<g xmlns="http://www.w3.org/2000/svg" fill="none" fill-rule="nonzero" stroke="none" stroke-width="1" stroke-linecap="butt" stroke-linejoin="miter" stroke-miterlimit="10" stroke-dasharray="" stroke-dashoffset="0" font-family="none" font-weight="none" font-size="none" text-anchor="none" style="mix-blend-mode: normal"><g data-paper-data="{&quot;isImportedGroup&quot;:true}"><path d="M384.2,9.7c168.168,0 336.336,0 509.6,0c0,168.168 0,336.336 0,509.6c-168.168,0 -336.336,0 -509.6,0c0,-168.168 0,-336.336 0,-509.6z" fill="#fefefd"/><path d="M625.94284,199.66639c0.81905,0.00201 1.6381,0.00403 2.48196,0.00611c0.83573,-0.00095 1.67145,-0.0019 2.53251,-0.00289c1.77047,-0.00068 3.54094,0.00117 5.31141,0.00532c2.71967,0.00532 5.43918,0.00005 8.15884,-0.00632c1.71588,0.00066 3.43176,0.00193 5.14763,0.00389c0.81905,-0.00201 1.6381,-0.00403 2.48196,-0.00611c5.73937,0.02388 5.73937,0.02388 6.84909,1.13361c0.07291,2.84926 0.09195,5.674 0.06221,8.52236c-0.00449,0.80253 -0.00898,1.60506 -0.01361,2.43191c-0.01177,1.98871 -0.02962,3.97739 -0.0486,5.96604c2.8577,-2.2067 5.43861,-4.29401 7.65146,-7.15381c2.58069,-3.13868 3.16771,-3.64469 7.0916,-4.16787c3.17256,0.37324 3.17256,0.37324 6.09629,2.6127c2.05283,2.73711 2.05283,2.73711 2.0295,4.59166c-1.43444,3.13854 -3.87423,4.92869 -6.50841,7.04106c-0.5687,0.4687 -1.1374,0.93741 -1.72333,1.42031c-1.88468,1.54857 -3.78079,3.08221 -5.67931,4.61377c-2.05086,1.66193 -4.10112,3.32461 -6.15121,4.9875c-1.369,1.10886 -2.73981,2.21548 -4.11247,3.31981c-4.416,3.56561 -8.65575,7.25698 -12.73349,11.21014c-2.31354,1.69819 -4.01526,2.13048 -6.86221,2.37942c-5.96258,-2.50428 -10.15253,-6.79114 -14.83638,-11.16616c-3.22573,-2.95831 -6.64345,-5.63448 -10.10864,-8.30464c-5.87764,-4.53512 -11.42705,-9.30168 -16.85811,-14.36982c0.81267,-3.79248 1.77644,-5.60451 4.97656,-7.9625c4.37394,-0.55772 6.26773,-0.53292 9.82482,2.17725c0.84294,0.92377 1.68589,1.84755 2.55438,2.79932c0.86091,0.92377 1.72181,1.84755 2.60881,2.79932c0.63766,0.71849 1.27532,1.43698 1.93231,2.17725c0.0603,-1.13804 0.1206,-2.27608 0.18273,-3.4486c0.08399,-1.48391 0.16825,-2.96781 0.25272,-4.45169c0.03913,-0.75121 0.07826,-1.50242 0.11858,-2.27639c0.39106,-6.70817 0.58188,-6.85401 7.29037,-6.88193z" fill="#e6a643"/><path d="M701.8291,263.19365c3.56484,1.89946 6.19951,4.19281 8.8334,7.27822c0.71849,0.8006 1.43698,1.60121 2.17725,2.42607c4.9935,7.05977 3.79463,12.57677 3.79463,21.46143c-13.79503,0 -27.59006,0 -41.80313,0c3.78899,5.89738 3.78899,5.89738 8.95781,9.95313c7.81442,1.34527 13.37651,0.18667 19.90625,-3.98125c2.17725,0.49766 2.17725,0.49766 3.98125,1.99062c0.75955,0.61585 1.5191,1.2317 2.30166,1.86621c1.67959,2.11504 1.67959,2.11504 1.59017,4.07067c-1.28637,2.87638 -2.93238,3.40236 -5.75804,4.70052c-0.88015,0.41442 -1.7603,0.82883 -2.66713,1.2558c-7.76449,3.3365 -17.77287,3.37284 -25.76149,0.5482c-6.88306,-3.27547 -11.83911,-8.30679 -14.99189,-15.24072c-2.84905,-8.30548 -2.33578,-15.91234 1.31801,-23.86028c7.2357,-13.63004 23.98822,-18.18297 38.12125,-12.46862z" fill="#155c76"/><path d="M561.1168,266.17959c4.81122,4.94487 6.67441,10.24894 6.67176,17.08458c-0.02055,0.80798 -0.0411,1.61596 -0.06227,2.44843c-0.00563,0.85032 -0.01127,1.70064 -0.01707,2.57673c-0.0221,2.68748 -0.07202,5.37359 -0.1229,8.06067c-0.01999,1.83379 -0.03815,3.66761 -0.05443,5.50143c-0.04364,4.47035 -0.11223,8.9397 -0.1944,13.4095c-4.26989,0 -8.53978,0 -12.93906,0c-0.49268,-1.97072 -0.49268,-1.97072 -0.99531,-3.98125c-0.86989,0.53887 -0.86989,0.53887 -1.75735,1.08862c-6.76678,3.83025 -12.40731,5.02911 -20.13953,3.88794c-5.93346,-1.75552 -9.43242,-4.95882 -12.93906,-9.95312c-1.66834,-5.00501 -1.5989,-9.29652 0.18662,-14.1832c3.30489,-5.01432 7.68387,-8.00945 13.49893,-9.33105c7.75572,-0.89489 14.54072,0.05165 22.1457,1.61738c-1.631,-5.48555 -1.631,-5.48555 -4.97656,-9.95312c-7.84392,-2.61464 -15.43181,-1.10405 -22.89219,1.99063c-0.83804,-1.09244 -1.66546,-2.19302 -2.48828,-3.29697c-0.46189,-0.612 -0.92377,-1.224 -1.39966,-1.85455c-1.08862,-1.81567 -1.08862,-1.81567 -1.08862,-4.80161c1.57458,-0.64606 3.15082,-1.28808 4.72773,-1.92842c0.87759,-0.35796 1.75517,-0.71593 2.65935,-1.08474c10.60618,-4.00142 22.56045,-3.19869 32.17659,2.70212z" fill="#f5a743"/><path d="M606.15469,247.57969c4.26989,0 8.53978,0 12.93906,0c0,13.13813 0,26.27625 0,39.8125c0.65691,0 1.31381,0 1.99063,0c0.26967,-0.58586 0.53935,-1.17172 0.8172,-1.77533c1.15931,-2.17937 2.39443,-3.80468 4.02329,-5.65063c0.55491,-0.63381 1.10981,-1.26762 1.68153,-1.92064c0.578,-0.65177 1.156,-1.30355 1.75152,-1.97507c1.1371,-1.29292 2.27368,-2.58631 3.40972,-3.88016c0.55675,-0.62114 1.1135,-1.24228 1.68712,-1.88225c1.56763,-1.77307 1.56763,-1.77307 2.79397,-3.6187c1.57421,-2.24697 2.88468,-3.96857 5.61953,-4.64317c2.16476,-0.12422 4.23333,-0.06083 6.3959,0.08991c0.7371,0.02694 1.47419,0.05389 2.23362,0.08165c1.80721,0.06996 3.61291,0.17706 5.41784,0.2916c-3.99812,5.61898 -8.3574,10.69087 -13.06664,15.71214c-1.29678,1.38671 -2.57586,2.78992 -3.85368,4.19411c-0.64279,0.6723 -1.28559,1.3446 -1.94786,2.03728c-1.29404,1.93019 -1.29404,1.93019 -0.58319,4.25729c2.02857,3.51789 4.50636,6.41506 7.19658,9.4438c0.53406,0.61296 1.06811,1.22593 1.61835,1.85746c2.31472,2.65237 4.65247,5.28285 7.00121,7.90515c0.62483,0.69925 1.24966,1.39849 1.89343,2.11893c0.53887,0.59019 1.07774,1.18038 1.63293,1.78845c1.10417,1.44631 1.10417,1.44631 1.10417,3.43694c-14.76666,1.51023 -14.76666,1.51023 -19.43192,-1.76124c-2.01537,-2.63189 -3.70728,-5.37282 -5.45089,-8.19189c-1.87727,-2.38525 -3.85906,-4.67434 -5.84746,-6.96719c-0.93082,-1.09873 -1.86135,-2.19771 -2.79154,-3.29697c-1.38214,-1.60086 -2.80456,-3.17002 -4.30006,-4.66553c-0.02494,0.71841 -0.04988,1.43682 -0.07557,2.177c-0.11504,3.23504 -0.23736,6.46977 -0.35988,9.70454c-0.03913,1.13098 -0.07826,2.26196 -0.11858,3.42722c-0.0417,1.07453 -0.0834,2.14906 -0.12636,3.25615c-0.05473,1.49332 -0.05473,1.49332 -0.11056,3.0168c-0.20436,2.30579 -0.20436,2.30579 -1.19967,3.3011c-1.98863,0.09828 -3.98082,0.12911 -5.97188,0.12441c-1.088,0.00257 -2.176,0.00513 -3.29697,0.00778c-2.6749,-0.13219 -2.6749,-0.13219 -3.67021,-1.1275c-0.09884,-1.96901 -0.12739,-3.94158 -0.12879,-5.91307c-0.00314,-1.26561 -0.00627,-2.53122 -0.00951,-3.83518c0.00178,-1.39278 0.00382,-2.78557 0.00611,-4.17835c-0.00067,-1.41959 -0.00164,-2.83919 -0.00289,-4.25878c-0.00147,-2.98043 0.00067,-5.96083 0.00532,-8.94126c0.00566,-3.82114 0.00241,-7.64221 -0.00356,-11.46334c-0.0036,-2.93383 -0.00245,-5.86765 0.00013,-8.80148c0.00066,-1.40876 -0.00015,-2.81752 -0.00247,-4.22627c-0.00253,-1.97054 0.00201,-3.94108 0.00687,-5.91162c0.00079,-1.12199 0.00158,-2.24398 0.0024,-3.39997c0.12639,-2.77067 0.12639,-2.77067 1.1217,-5.75661z" fill="#b1ad51"/><path d="M744.19209,261.14082c1.052,0.00132 1.052,0.00132 2.12524,0.00267c5.83507,0.13149 11.1081,1.14796 16.10142,4.35182c0.65691,0.98536 1.31381,1.97072 1.99062,2.98594c-1.64227,2.62763 -3.28453,5.25525 -4.97656,7.9625c-0.69796,-0.2874 -1.39593,-0.57479 -2.11504,-0.8709c-0.9443,-0.36951 -1.88861,-0.73902 -2.86152,-1.11973c-0.92377,-0.36951 -1.84755,-0.73902 -2.79932,-1.11973c-4.83853,-1.32822 -9.29656,-1.48373 -14.121,0.12441c-0.32845,2.29917 -0.65691,4.59834 -0.99531,6.96719c1.56849,0.36181 1.56849,0.36181 3.16867,0.73093c21.13815,4.99249 21.13815,4.99249 25.69539,12.20813c1.59444,3.18888 1.34534,6.48526 0.99531,9.95313c-1.81139,5.13227 -4.54067,7.83045 -8.95781,10.94844c-9.07181,3.70942 -19.69925,3.29964 -28.73965,-0.24883c-2.88278,-1.27251 -4.63967,-2.13839 -6.56284,-4.63442c-0.52876,-2.08394 -0.52876,-2.08394 0.36547,-4.21453c0.48498,-0.69283 0.96996,-1.38566 1.46964,-2.09949c0.47985,-0.70309 0.9597,-1.40619 1.45409,-2.13059c0.38234,-0.5286 0.76468,-1.05721 1.15861,-1.60183c0.67487,0.3477 1.34974,0.6954 2.04506,1.05363c7.65459,3.74248 15.32638,6.47494 23.83307,3.92293c0.41585,-2.36193 0.41585,-2.36193 0,-4.97656c-4.45086,-3.33385 -9.68744,-4.52755 -14.95885,-5.98937c-5.6601,-1.65779 -10.39737,-3.67855 -13.7808,-8.7537c-1.70891,-4.84191 -1.74106,-8.41381 0,-13.2501c5.09071,-7.80575 11.50854,-10.22208 20.46611,-10.20195z" fill="#165c76"/><path d="M777.34844,248.575c10.01144,-0.0972 10.01144,-0.0972 12.93906,0c0.99531,0.99531 0.99531,0.99531 1.09251,3.92293c-0.0324,3.33715 -0.0648,6.6743 -0.0972,10.01144c4.26989,0 8.53978,0 12.93906,0c0,3.61298 0,7.22597 0,10.94844c-4.26989,0 -8.53978,0 -12.93906,0c0.32845,9.85359 0.65691,19.70719 0.99531,29.85938c3.94144,0 7.88288,0 11.94375,0c0.65691,3.28453 1.31381,6.56906 1.99062,9.95313c-5.9638,3.18069 -11.19906,3.72659 -17.91562,2.98594c-4.73622,-1.63615 -7.16197,-3.82745 -9.95312,-7.9625c-1.16327,-3.48981 -1.11987,-6.61663 -1.09251,-10.24472c0.00141,-0.70272 0.00282,-1.40544 0.00427,-2.12945c0.00556,-2.24117 0.01806,-4.48224 0.03072,-6.72339c0.00499,-1.52083 0.00953,-3.04166 0.01361,-4.5625c0.01097,-3.72533 0.02814,-7.45059 0.0486,-11.17588c-2.62762,0 -5.25525,0 -7.9625,0c0,-3.61298 0,-7.22597 0,-10.94844c2.62762,0 5.25525,0 7.9625,0c0,-4.59834 0,-9.19669 0,-13.93437z" fill="#1a5f78"/><path d="M491.13389,248.32617c0.77879,-0.02566 1.55759,-0.05132 2.35998,-0.07776c2.18113,0.32659 2.18113,0.32659 3.94626,1.4813c2.46507,3.69761 1.37115,8.52001 1.22081,12.77966c3.94144,0 7.88288,0 11.94375,0c0,3.61298 0,7.22597 0,10.94844c-3.94144,0 -7.88288,0 -11.94375,0c-0.02686,4.0435 -0.04661,8.08682 -0.06221,12.13037c-0.00834,1.1451 -0.01668,2.29019 -0.02527,3.46999c-0.00321,1.1066 -0.00642,2.21321 -0.00972,3.35335c-0.00521,1.01639 -0.01042,2.03278 -0.01579,3.07998c0.05331,3.22832 0.05331,3.22832 1.10831,7.82569c3.61298,0 7.22597,0 10.94844,0c0.65691,3.28453 1.31381,6.56906 1.99063,9.95313c-5.69914,2.97346 -10.50996,3.75942 -16.92031,2.98594c-4.71609,-1.65936 -7.16744,-3.83556 -9.95312,-7.9625c-1.15857,-3.47571 -1.20551,-6.36152 -1.31024,-10.027c-0.02068,-0.68063 -0.04137,-1.36125 -0.06268,-2.06251c-0.06498,-2.17003 -0.1237,-4.34019 -0.18226,-6.5104c-0.043,-1.47289 -0.08641,-2.94577 -0.13025,-4.41864c-0.10646,-3.60723 -0.20731,-7.2146 -0.3052,-10.82208c-2.29917,-0.32845 -4.59834,-0.65691 -6.96719,-0.99531c0,-3.61298 0,-7.22597 0,-10.94844c3.44876,-0.49268 3.44876,-0.49268 6.96719,-0.99531c0.04875,-0.85064 0.09751,-1.70128 0.14774,-2.5777c0.11162,-1.64932 0.11162,-1.64932 0.2255,-3.33196c0.06928,-1.09698 0.13857,-2.19396 0.20995,-3.32419c0.136,-0.89426 0.272,-1.78853 0.41212,-2.70989c2.31596,-1.15798 3.82918,-1.19334 6.40732,-1.24414z" fill="#f6a642"/><path d="M608.14531,206.77188c2.83042,2.11504 2.83042,2.11504 5.47422,4.97656c0.47207,0.50094 0.94414,1.00188 1.43052,1.518c3.15788,3.37726 6.1863,6.87151 9.20688,10.37132c2.23467,2.53327 4.51364,5.01009 6.84277,7.45707c0.79162,0.84038 1.58325,1.68076 2.39886,2.5466c2.88919,2.29081 4.85494,2.69986 8.48737,2.98983c0,-0.65691 0,-1.31381 0,-1.99063c1.25192,-1.22859 1.25192,-1.22859 3.11035,-2.73711c4.19848,-3.56758 8.11123,-7.36781 12.00596,-11.25947c0.88649,-0.87999 0.88649,-0.87999 1.79088,-1.77776c2.72637,-2.73477 5.33772,-5.48726 7.77734,-8.48251c2.50651,-2.99624 3.17829,-3.4784 6.97885,-3.98514c3.17256,0.37324 3.17256,0.37324 6.09629,2.6127c2.05283,2.73711 2.05283,2.73711 2.0295,4.59166c-1.43444,3.13854 -3.87423,4.92869 -6.50841,7.04106c-0.5687,0.4687 -1.1374,0.93741 -1.72333,1.42031c-1.88468,1.54857 -3.78079,3.08221 -5.67931,4.61377c-2.05086,1.66193 -4.10112,3.32461 -6.15121,4.9875c-1.369,1.10886 -2.73981,2.21548 -4.11247,3.31981c-4.416,3.56561 -8.65575,7.25698 -12.73349,11.21014c-2.31354,1.69819 -4.01526,2.13048 -6.86221,2.37942c-5.96258,-2.50428 -10.15253,-6.79114 -14.83638,-11.16616c-3.22573,-2.95831 -6.64345,-5.63448 -10.10864,-8.30464c-5.87764,-4.53512 -11.42705,-9.30168 -16.85811,-14.36982c1.49081,-6.95713 4.9541,-8.76047 11.94375,-7.9625z" fill="#145b74"/><path d="M579.28125,241.60781c4.26989,0 8.53978,0 12.93906,0c0,24.30553 0,48.61106 0,73.65312c-4.26989,0 -8.53978,0 -12.93906,0c0,-24.30553 0,-48.61106 0,-73.65312z" fill="#f5a43f"/><path d="M636.01406,199.80469c3.62873,-0.02874 7.25743,-0.04654 10.88623,-0.06221c1.03604,-0.00834 2.07208,-0.01668 3.13951,-0.02527c0.98472,-0.00321 1.96944,-0.00642 2.98399,-0.00972c1.36822,-0.00782 1.36822,-0.00782 2.76408,-0.01579c2.12306,0.11299 2.12306,0.11299 3.11837,1.10831c1.49861,5.92117 2.60119,11.91608 0.99531,17.91562c-3.9483,6.31856 -9.96683,11.51417 -15.925,15.925c-0.32845,0 -0.65691,0 -0.99531,0c0,-5.91216 0,-11.82431 0,-17.91562c2.6961,-1.34805 4.98585,-1.06002 7.9625,-0.99531c0,-1.97072 0,-3.94144 0,-5.97188c-6.89752,0 -13.79503,0 -20.90156,0c0,-0.32845 0,-0.65691 0,-0.99531c1.97072,-0.32845 3.94144,-0.65691 5.97188,-0.99531c0,-2.62762 0,-5.25525 0,-7.9625z" fill="#b9ad51"/><path d="M625.06562,209.75781c8.53978,0 17.07956,0 25.87813,0c0,1.97072 0,3.94144 0,5.97188c-2.62762,0.32845 -5.25525,0.65691 -7.9625,0.99531c0.05196,1.88796 0.05196,1.88796 0.10497,3.81407c0.02801,1.65236 0.05518,3.30474 0.08165,4.95712c0.02502,0.82947 0.05004,1.65894 0.07581,2.51355c0.00962,0.79868 0.01925,1.59736 0.02916,2.42024c0.01564,0.73493 0.03127,1.46986 0.04738,2.22706c-0.42782,2.50344 -1.40857,3.37146 -3.32492,4.96952c-2.4634,-0.98536 -2.4634,-0.98536 -4.97656,-1.99062c0,-6.24061 0,-12.48122 0,-18.91094c-2.95608,-0.32845 -5.91216,-0.65691 -8.95781,-0.99531c-0.32845,-0.32845 -0.65691,-0.65691 -0.99531,-0.99531c0,-1.64227 0,-3.28453 0,-4.97656z" fill="#f8f5e7"/><path d="M544.07207,291.12461c1.30611,0.0154 2.61223,0.03079 3.95792,0.04666c3.38251,0.20217 3.38251,0.20217 6.36844,1.19749c-0.02159,4.95569 -0.23324,8.04332 -3.48359,11.94375c-3.81043,2.63799 -7.86831,3.28045 -12.44141,2.98594c-4.08291,-1.48469 -5.54457,-2.34498 -7.9625,-5.97187c0.06221,-3.48359 0.06221,-3.48359 0.99531,-6.96719c4.0422,-3.30657 7.46339,-3.33541 12.56582,-3.23477z" fill="#f7f0de"/><path d="M698.71875,274.45313c2.66241,2.15871 3.7946,3.36387 4.78994,6.65615c0.06158,0.75955 0.12317,1.5191 0.18662,2.30166c-0.99531,0.99531 -0.99531,0.99531 -3.5752,1.10831c-1.12064,-0.00521 -2.24128,-0.01042 -3.39587,-0.01579c-1.20925,-0.00321 -2.41849,-0.00642 -3.66438,-0.00972c-1.2734,-0.00834 -2.54679,-0.01668 -3.85878,-0.02527c-1.27725,-0.00449 -2.55449,-0.00898 -3.87044,-0.01361c-3.16807,-0.01178 -6.33605,-0.02818 -9.50407,-0.0486c-0.56229,-1.87544 -0.56229,-1.87544 -0.99531,-3.98125c2.00048,-3.56477 4.89741,-6.33353 8.39795,-8.39795c6.01289,-1.3199 10.24446,-0.83753 15.48955,2.42607z" fill="#faf9f2"/><path d="M498.66094,273.45781c3.94144,0 7.88288,0 11.94375,0c0,0.32845 0,0.65691 0,0.99531c-1.27276,0.12317 -2.54551,0.24634 -3.85684,0.37324c-3.45663,0.31395 -3.45663,0.31395 -6.09629,2.6127c-0.30936,2.38055 -0.30936,2.38055 -0.26438,5.13208c-0.00257,1.01743 -0.00513,2.03487 -0.00778,3.08314c0.0077,1.06619 0.0154,2.13238 0.02333,3.23088c-0.0077,1.06619 -0.0154,2.13238 -0.02333,3.23088c0.00385,1.52615 0.00385,1.52615 0.00778,3.08314c0.00225,0.93596 0.00449,1.87193 0.0068,2.83625c0.03762,2.48983 0.03762,2.48983 2.2482,4.28645c1.97889,0.39578 3.97074,0.7343 5.97188,0.99531c0,0.32845 0,0.65691 0,0.99531c-6.44595,0.36487 -6.44595,0.36487 -8.8334,-1.30635c-2.16487,-3.24731 -2.24267,-6.11232 -2.24723,-9.89481c-0.00128,-1.01423 -0.00257,-2.02845 -0.00389,-3.07342c0.00385,-1.05785 0.0077,-2.1157 0.01166,-3.20561c-0.00385,-1.0617 -0.0077,-2.1234 -0.01166,-3.21727c0.00128,-1.01294 0.00257,-2.02589 0.00389,-3.06953c0.00112,-0.92963 0.00225,-1.85926 0.0034,-2.81706c0.12879,-2.28003 0.12879,-2.28003 1.1241,-4.27066z" fill="#f6edd5"/><path d="M477.75938,273.45781c1.99017,-0.04234 3.98166,-0.04062 5.97188,0c0.99531,0.99531 0.99531,0.99531 1.10831,3.8493c-0.00521,1.24573 -0.01042,2.49146 -0.01579,3.77495c-0.00141,0.66135 -0.00282,1.3227 -0.00427,2.0041c-0.00559,2.11967 -0.01808,4.23923 -0.03072,6.35886c-0.00499,1.434 -0.00953,2.868 -0.01361,4.30201c-0.01099,3.52186 -0.02819,7.04366 -0.0486,10.56548c-0.32845,0 -0.65691,0 -0.99531,0c-0.02494,-0.80365 -0.04988,-1.6073 -0.07557,-2.43531c-0.11518,-3.62584 -0.23744,-7.2514 -0.35988,-10.877c-0.03913,-1.26506 -0.07826,-2.53012 -0.11858,-3.83351c-0.06255,-1.80906 -0.06255,-1.80906 -0.12636,-3.65466c-0.03649,-1.11543 -0.07297,-2.23085 -0.11056,-3.38008c-0.03114,-2.66017 -0.03114,-2.66017 -1.19967,-4.68351c-2.00725,-1.12819 -2.00725,-1.12819 -3.98125,-1.99063z" fill="#f8f2e1"/><path d="M625.06562,209.75781c1.31381,0.32845 2.62763,0.65691 3.98125,0.99531c0,1.31381 0,2.62762 0,3.98125c2.95608,0.49268 2.95608,0.49268 5.97187,0.99531c0,0.32845 0,0.65691 0,0.99531c-1.47275,-0.13984 -2.94488,-0.2862 -4.4167,-0.43545c-0.81985,-0.08083 -1.6397,-0.16166 -2.48439,-0.24494c-2.05672,-0.31492 -2.05672,-0.31492 -3.05203,-1.31024c-0.04045,-1.65836 -0.04252,-3.31825 0,-4.97656z" fill="#f5ecd2"/><path d="M552.40781,278.43438c1.99063,1.99063 1.99063,1.99063 1.99063,5.97188c-3.61298,-0.32845 -7.22597,-0.65691 -10.94844,-0.99531c0,-0.32845 0,-0.65691 0,-0.99531c1.10853,-0.10264 2.21706,-0.20528 3.35918,-0.31104c1.19064,-0.22581 2.38129,-0.45162 3.60801,-0.68428c0.65691,-0.98536 1.31381,-1.97072 1.99063,-2.98594z" fill="#f6edd4"/><path d="M483.73125,249.57031c0.32845,0 0.65691,0 0.99531,0c0.02674,1.96982 0.04612,3.93974 0.06221,5.90967c0.01155,1.09698 0.02309,2.19396 0.03499,3.32419c-0.0972,2.70989 -0.0972,2.70989 -1.09251,3.70521c-1.99021,0.04062 -3.9817,0.04234 -5.97188,0c0.63638,-0.2874 1.27276,-0.57479 1.92842,-0.8709c2.20418,-0.94877 2.20418,-0.94877 3.04814,-3.11035c0.22363,-1.52949 0.40606,-3.06524 0.55986,-4.60332c0.0834,-0.81343 0.16679,-1.62687 0.25272,-2.46495c0.0603,-0.62355 0.1206,-1.2471 0.18273,-1.88954z" fill="#f9f3e3"/><path d="M658.90625,203.78594c0.32845,0 0.65691,0 0.99531,0c0.04875,0.6954 0.09751,1.39079 0.14774,2.10726c0.07442,0.90581 0.14883,1.81162 0.2255,2.74489c0.06928,0.90068 0.13857,1.80136 0.20995,2.72933c0.20876,2.55022 0.20876,2.55022 2.40275,4.36227c-1.97072,0.98536 -1.97072,0.98536 -3.98125,1.99062c0,-4.59834 0,-9.19669 0,-13.93437z" fill="#f7f3e2"/></g><path d="M384.2,9.7c168.168,0 336.336,0 509.6,0c0,168.168 0,336.336 0,509.6c-168.168,0 -336.336,0 -509.6,0c0,-168.168 0,-336.336 0,-509.6z" fill="#fefefd"/><path d="M625.94284,199.66639c0.81905,0.00201 1.6381,0.00403 2.48196,0.00611c0.83573,-0.00095 1.67145,-0.0019 2.53251,-0.00289c1.77047,-0.00068 3.54094,0.00117 5.31141,0.00532c2.71967,0.00532 5.43918,0.00005 8.15884,-0.00632c1.71588,0.00066 3.43176,0.00193 5.14763,0.00389c0.81905,-0.00201 1.6381,-0.00403 2.48196,-0.00611c5.73937,0.02388 5.73937,0.02388 6.84909,1.13361c0.07291,2.84926 0.09195,5.674 0.06221,8.52236c-0.00449,0.80253 -0.00898,1.60506 -0.01361,2.43191c-0.01177,1.98871 -0.02962,3.97739 -0.0486,5.96604c2.8577,-2.2067 5.43861,-4.29401 7.65146,-7.15381c2.58069,-3.13868 3.16771,-3.64469 7.0916,-4.16787c3.17256,0.37324 3.17256,0.37324 6.09629,2.6127c2.05283,2.73711 2.05283,2.73711 2.0295,4.59166c-1.43444,3.13854 -3.87423,4.92869 -6.50841,7.04106c-0.5687,0.4687 -1.1374,0.93741 -1.72333,1.42031c-1.88468,1.54857 -3.78079,3.08221 -5.67931,4.61377c-2.05086,1.66193 -4.10112,3.32461 -6.15121,4.9875c-1.369,1.10886 -2.73981,2.21548 -4.11247,3.31981c-4.416,3.56561 -8.65575,7.25698 -12.73349,11.21014c-2.31354,1.69819 -4.01526,2.13048 -6.86221,2.37942c-5.96258,-2.50428 -10.15253,-6.79114 -14.83638,-11.16616c-3.22573,-2.95831 -6.64345,-5.63448 -10.10864,-8.30464c-5.87764,-4.53512 -11.42705,-9.30168 -16.85811,-14.36982c0.81267,-3.79248 1.77644,-5.60451 4.97656,-7.9625c4.37394,-0.55772 6.26773,-0.53292 9.82482,2.17725c0.84294,0.92377 1.68589,1.84755 2.55438,2.79932c0.86091,0.92377 1.72181,1.84755 2.60881,2.79932c0.63766,0.71849 1.27532,1.43698 1.93231,2.17725c0.0603,-1.13804 0.1206,-2.27608 0.18273,-3.4486c0.08399,-1.48391 0.16825,-2.96781 0.25272,-4.45169c0.03913,-0.75121 0.07826,-1.50242 0.11858,-2.27639c0.39106,-6.70817 0.58188,-6.85401 7.29037,-6.88193z" fill="#e6a643"/><path d="M701.8291,263.19365c3.56484,1.89946 6.19951,4.19281 8.8334,7.27822c0.71849,0.8006 1.43698,1.60121 2.17725,2.42607c4.9935,7.05977 3.79463,12.57677 3.79463,21.46143c-13.79503,0 -27.59006,0 -41.80313,0c3.78899,5.89738 3.78899,5.89738 8.95781,9.95313c7.81442,1.34527 13.37651,0.18667 19.90625,-3.98125c2.17725,0.49766 2.17725,0.49766 3.98125,1.99062c0.75955,0.61585 1.5191,1.2317 2.30166,1.86621c1.67959,2.11504 1.67959,2.11504 1.59017,4.07067c-1.28637,2.87638 -2.93238,3.40236 -5.75804,4.70052c-0.88015,0.41442 -1.7603,0.82883 -2.66713,1.2558c-7.76449,3.3365 -17.77287,3.37284 -25.76149,0.5482c-6.88306,-3.27547 -11.83911,-8.30679 -14.99189,-15.24072c-2.84905,-8.30548 -2.33578,-15.91234 1.31801,-23.86028c7.2357,-13.63004 23.98822,-18.18297 38.12125,-12.46862z" fill="#155c76"/><path d="M561.1168,266.17959c4.81122,4.94487 6.67441,10.24894 6.67176,17.08458c-0.02055,0.80798 -0.0411,1.61596 -0.06227,2.44843c-0.00563,0.85032 -0.01127,1.70064 -0.01707,2.57673c-0.0221,2.68748 -0.07202,5.37359 -0.1229,8.06067c-0.01999,1.83379 -0.03815,3.66761 -0.05443,5.50143c-0.04364,4.47035 -0.11223,8.9397 -0.1944,13.4095c-4.26989,0 -8.53978,0 -12.93906,0c-0.49268,-1.97072 -0.49268,-1.97072 -0.99531,-3.98125c-0.86989,0.53887 -0.86989,0.53887 -1.75735,1.08862c-6.76678,3.83025 -12.40731,5.02911 -20.13953,3.88794c-5.93346,-1.75552 -9.43242,-4.95882 -12.93906,-9.95312c-1.66834,-5.00501 -1.5989,-9.29652 0.18662,-14.1832c3.30489,-5.01432 7.68387,-8.00945 13.49893,-9.33105c7.75572,-0.89489 14.54072,0.05165 22.1457,1.61738c-1.631,-5.48555 -1.631,-5.48555 -4.97656,-9.95312c-7.84392,-2.61464 -15.43181,-1.10405 -22.89219,1.99063c-0.83804,-1.09244 -1.66546,-2.19302 -2.48828,-3.29697c-0.46189,-0.612 -0.92377,-1.224 -1.39966,-1.85455c-1.08862,-1.81567 -1.08862,-1.81567 -1.08862,-4.80161c1.57458,-0.64606 3.15082,-1.28808 4.72773,-1.92842c0.87759,-0.35796 1.75517,-0.71593 2.65935,-1.08474c10.60618,-4.00142 22.56045,-3.19869 32.17659,2.70212z" fill="#f5a743"/><path d="M606.15469,247.57969c4.26989,0 8.53978,0 12.93906,0c0,13.13813 0,26.27625 0,39.8125c0.65691,0 1.31381,0 1.99063,0c0.26967,-0.58586 0.53935,-1.17172 0.8172,-1.77533c1.15931,-2.17937 2.39443,-3.80468 4.02329,-5.65063c0.55491,-0.63381 1.10981,-1.26762 1.68153,-1.92064c0.578,-0.65177 1.156,-1.30355 1.75152,-1.97507c1.1371,-1.29292 2.27368,-2.58631 3.40972,-3.88016c0.55675,-0.62114 1.1135,-1.24228 1.68712,-1.88225c1.56763,-1.77307 1.56763,-1.77307 2.79397,-3.6187c1.57421,-2.24697 2.88468,-3.96857 5.61953,-4.64317c2.16476,-0.12422 4.23333,-0.06083 6.3959,0.08991c0.7371,0.02694 1.47419,0.05389 2.23362,0.08165c1.80721,0.06996 3.61291,0.17706 5.41784,0.2916c-3.99812,5.61898 -8.3574,10.69087 -13.06664,15.71214c-1.29678,1.38671 -2.57586,2.78992 -3.85368,4.19411c-0.64279,0.6723 -1.28559,1.3446 -1.94786,2.03728c-1.29404,1.93019 -1.29404,1.93019 -0.58319,4.25729c2.02857,3.51789 4.50636,6.41506 7.19658,9.4438c0.53406,0.61296 1.06811,1.22593 1.61835,1.85746c2.31472,2.65237 4.65247,5.28285 7.00121,7.90515c0.62483,0.69925 1.24966,1.39849 1.89343,2.11893c0.53887,0.59019 1.07774,1.18038 1.63293,1.78845c1.10417,1.44631 1.10417,1.44631 1.10417,3.43694c-14.76666,1.51023 -14.76666,1.51023 -19.43192,-1.76124c-2.01537,-2.63189 -3.70728,-5.37282 -5.45089,-8.19189c-1.87727,-2.38525 -3.85906,-4.67434 -5.84746,-6.96719c-0.93082,-1.09873 -1.86135,-2.19771 -2.79154,-3.29697c-1.38214,-1.60086 -2.80456,-3.17002 -4.30006,-4.66553c-0.02494,0.71841 -0.04988,1.43682 -0.07557,2.177c-0.11504,3.23504 -0.23736,6.46977 -0.35988,9.70454c-0.03913,1.13098 -0.07826,2.26196 -0.11858,3.42722c-0.0417,1.07453 -0.0834,2.14906 -0.12636,3.25615c-0.05473,1.49332 -0.05473,1.49332 -0.11056,3.0168c-0.20436,2.30579 -0.20436,2.30579 -1.19967,3.3011c-1.98863,0.09828 -3.98082,0.12911 -5.97188,0.12441c-1.088,0.00257 -2.176,0.00513 -3.29697,0.00778c-2.6749,-0.13219 -2.6749,-0.13219 -3.67021,-1.1275c-0.09884,-1.96901 -0.12739,-3.94158 -0.12879,-5.91307c-0.00314,-1.26561 -0.00627,-2.53122 -0.00951,-3.83518c0.00178,-1.39278 0.00382,-2.78557 0.00611,-4.17835c-0.00067,-1.41959 -0.00164,-2.83919 -0.00289,-4.25878c-0.00147,-2.98043 0.00067,-5.96083 0.00532,-8.94126c0.00566,-3.82114 0.00241,-7.64221 -0.00356,-11.46334c-0.0036,-2.93383 -0.00245,-5.86765 0.00013,-8.80148c0.00066,-1.40876 -0.00015,-2.81752 -0.00247,-4.22627c-0.00253,-1.97054 0.00201,-3.94108 0.00687,-5.91162c0.00079,-1.12199 0.00158,-2.24398 0.0024,-3.39997c0.12639,-2.77067 0.12639,-2.77067 1.1217,-5.75661z" fill="#b1ad51"/><path d="M744.19209,261.14082c1.052,0.00132 1.052,0.00132 2.12524,0.00267c5.83507,0.13149 11.1081,1.14796 16.10142,4.35182c0.65691,0.98536 1.31381,1.97072 1.99062,2.98594c-1.64227,2.62763 -3.28453,5.25525 -4.97656,7.9625c-0.69796,-0.2874 -1.39593,-0.57479 -2.11504,-0.8709c-0.9443,-0.36951 -1.88861,-0.73902 -2.86152,-1.11973c-0.92377,-0.36951 -1.84755,-0.73902 -2.79932,-1.11973c-4.83853,-1.32822 -9.29656,-1.48373 -14.121,0.12441c-0.32845,2.29917 -0.65691,4.59834 -0.99531,6.96719c1.56849,0.36181 1.56849,0.36181 3.16867,0.73093c21.13815,4.99249 21.13815,4.99249 25.69539,12.20813c1.59444,3.18888 1.34534,6.48526 0.99531,9.95313c-1.81139,5.13227 -4.54067,7.83045 -8.95781,10.94844c-9.07181,3.70942 -19.69925,3.29964 -28.73965,-0.24883c-2.88278,-1.27251 -4.63967,-2.13839 -6.56284,-4.63442c-0.52876,-2.08394 -0.52876,-2.08394 0.36547,-4.21453c0.48498,-0.69283 0.96996,-1.38566 1.46964,-2.09949c0.47985,-0.70309 0.9597,-1.40619 1.45409,-2.13059c0.38234,-0.5286 0.76468,-1.05721 1.15861,-1.60183c0.67487,0.3477 1.34974,0.6954 2.04506,1.05363c7.65459,3.74248 15.32638,6.47494 23.83307,3.92293c0.41585,-2.36193 0.41585,-2.36193 0,-4.97656c-4.45086,-3.33385 -9.68744,-4.52755 -14.95885,-5.98937c-5.6601,-1.65779 -10.39737,-3.67855 -13.7808,-8.7537c-1.70891,-4.84191 -1.74106,-8.41381 0,-13.2501c5.09071,-7.80575 11.50854,-10.22208 20.46611,-10.20195z" fill="#165c76"/><path d="M777.34844,248.575c10.01144,-0.0972 10.01144,-0.0972 12.93906,0c0.99531,0.99531 0.99531,0.99531 1.09251,3.92293c-0.0324,3.33715 -0.0648,6.6743 -0.0972,10.01144c4.26989,0 8.53978,0 12.93906,0c0,3.61298 0,7.22597 0,10.94844c-4.26989,0 -8.53978,0 -12.93906,0c0.32845,9.85359 0.65691,19.70719 0.99531,29.85938c3.94144,0 7.88288,0 11.94375,0c0.65691,3.28453 1.31381,6.56906 1.99062,9.95313c-5.9638,3.18069 -11.19906,3.72659 -17.91562,2.98594c-4.73622,-1.63615 -7.16197,-3.82745 -9.95312,-7.9625c-1.16327,-3.48981 -1.11987,-6.61663 -1.09251,-10.24472c0.00141,-0.70272 0.00282,-1.40544 0.00427,-2.12945c0.00556,-2.24117 0.01806,-4.48224 0.03072,-6.72339c0.00499,-1.52083 0.00953,-3.04166 0.01361,-4.5625c0.01097,-3.72533 0.02814,-7.45059 0.0486,-11.17588c-2.62762,0 -5.25525,0 -7.9625,0c0,-3.61298 0,-7.22597 0,-10.94844c2.62762,0 5.25525,0 7.9625,0c0,-4.59834 0,-9.19669 0,-13.93437z" fill="#1a5f78"/><path d="M491.13389,248.32617c0.77879,-0.02566 1.55759,-0.05132 2.35998,-0.07776c2.18113,0.32659 2.18113,0.32659 3.94626,1.4813c2.46507,3.69761 1.37115,8.52001 1.22081,12.77966c3.94144,0 7.88288,0 11.94375,0c0,3.61298 0,7.22597 0,10.94844c-3.94144,0 -7.88288,0 -11.94375,0c-0.02686,4.0435 -0.04661,8.08682 -0.06221,12.13037c-0.00834,1.1451 -0.01668,2.29019 -0.02527,3.46999c-0.00321,1.1066 -0.00642,2.21321 -0.00972,3.35335c-0.00521,1.01639 -0.01042,2.03278 -0.01579,3.07998c0.05331,3.22832 0.05331,3.22832 1.10831,7.82569c3.61298,0 7.22597,0 10.94844,0c0.65691,3.28453 1.31381,6.56906 1.99063,9.95313c-5.69914,2.97346 -10.50996,3.75942 -16.92031,2.98594c-4.71609,-1.65936 -7.16744,-3.83556 -9.95312,-7.9625c-1.15857,-3.47571 -1.20551,-6.36152 -1.31024,-10.027c-0.02068,-0.68063 -0.04137,-1.36125 -0.06268,-2.06251c-0.06498,-2.17003 -0.1237,-4.34019 -0.18226,-6.5104c-0.043,-1.47289 -0.08641,-2.94577 -0.13025,-4.41864c-0.10646,-3.60723 -0.20731,-7.2146 -0.3052,-10.82208c-2.29917,-0.32845 -4.59834,-0.65691 -6.96719,-0.99531c0,-3.61298 0,-7.22597 0,-10.94844c3.44876,-0.49268 3.44876,-0.49268 6.96719,-0.99531c0.04875,-0.85064 0.09751,-1.70128 0.14774,-2.5777c0.11162,-1.64932 0.11162,-1.64932 0.2255,-3.33196c0.06928,-1.09698 0.13857,-2.19396 0.20995,-3.32419c0.136,-0.89426 0.272,-1.78853 0.41212,-2.70989c2.31596,-1.15798 3.82918,-1.19334 6.40732,-1.24414z" fill="#f6a642"/><path d="M608.14531,206.77188c2.83042,2.11504 2.83042,2.11504 5.47422,4.97656c0.47207,0.50094 0.94414,1.00188 1.43052,1.518c3.15788,3.37726 6.1863,6.87151 9.20688,10.37132c2.23467,2.53327 4.51364,5.01009 6.84277,7.45707c0.79162,0.84038 1.58325,1.68076 2.39886,2.5466c2.88919,2.29081 4.85494,2.69986 8.48737,2.98983c0,-0.65691 0,-1.31381 0,-1.99063c1.25192,-1.22859 1.25192,-1.22859 3.11035,-2.73711c4.19848,-3.56758 8.11123,-7.36781 12.00596,-11.25947c0.88649,-0.87999 0.88649,-0.87999 1.79088,-1.77776c2.72637,-2.73477 5.33772,-5.48726 7.77734,-8.48251c2.50651,-2.99624 3.17829,-3.4784 6.97885,-3.98514c3.17256,0.37324 3.17256,0.37324 6.09629,2.6127c2.05283,2.73711 2.05283,2.73711 2.0295,4.59166c-1.43444,3.13854 -3.87423,4.92869 -6.50841,7.04106c-0.5687,0.4687 -1.1374,0.93741 -1.72333,1.42031c-1.88468,1.54857 -3.78079,3.08221 -5.67931,4.61377c-2.05086,1.66193 -4.10112,3.32461 -6.15121,4.9875c-1.369,1.10886 -2.73981,2.21548 -4.11247,3.31981c-4.416,3.56561 -8.65575,7.25698 -12.73349,11.21014c-2.31354,1.69819 -4.01526,2.13048 -6.86221,2.37942c-5.96258,-2.50428 -10.15253,-6.79114 -14.83638,-11.16616c-3.22573,-2.95831 -6.64345,-5.63448 -10.10864,-8.30464c-5.87764,-4.53512 -11.42705,-9.30168 -16.85811,-14.36982c1.49081,-6.95713 4.9541,-8.76047 11.94375,-7.9625z" fill="#145b74"/><path d="M579.28125,241.60781c4.26989,0 8.53978,0 12.93906,0c0,24.30553 0,48.61106 0,73.65312c-4.26989,0 -8.53978,0 -12.93906,0c0,-24.30553 0,-48.61106 0,-73.65312z" fill="#f5a43f"/><path d="M636.01406,199.80469c3.62873,-0.02874 7.25743,-0.04654 10.88623,-0.06221c1.03604,-0.00834 2.07208,-0.01668 3.13951,-0.02527c0.98472,-0.00321 1.96944,-0.00642 2.98399,-0.00972c1.36822,-0.00782 1.36822,-0.00782 2.76408,-0.01579c2.12306,0.11299 2.12306,0.11299 3.11837,1.10831c1.49861,5.92117 2.60119,11.91608 0.99531,17.91562c-3.9483,6.31856 -9.96683,11.51417 -15.925,15.925c-0.32845,0 -0.65691,0 -0.99531,0c0,-5.91216 0,-11.82431 0,-17.91562c2.6961,-1.34805 4.98585,-1.06002 7.9625,-0.99531c0,-1.97072 0,-3.94144 0,-5.97188c-6.89752,0 -13.79503,0 -20.90156,0c0,-0.32845 0,-0.65691 0,-0.99531c1.97072,-0.32845 3.94144,-0.65691 5.97188,-0.99531c0,-2.62762 0,-5.25525 0,-7.9625z" fill="#b9ad51"/><path d="M625.06562,209.75781c8.53978,0 17.07956,0 25.87813,0c0,1.97072 0,3.94144 0,5.97188c-2.62762,0.32845 -5.25525,0.65691 -7.9625,0.99531c0.05196,1.88796 0.05196,1.88796 0.10497,3.81407c0.02801,1.65236 0.05518,3.30474 0.08165,4.95712c0.02502,0.82947 0.05004,1.65894 0.07581,2.51355c0.00962,0.79868 0.01925,1.59736 0.02916,2.42024c0.01564,0.73493 0.03127,1.46986 0.04738,2.22706c-0.42782,2.50344 -1.40857,3.37146 -3.32492,4.96952c-2.4634,-0.98536 -2.4634,-0.98536 -4.97656,-1.99062c0,-6.24061 0,-12.48122 0,-18.91094c-2.95608,-0.32845 -5.91216,-0.65691 -8.95781,-0.99531c-0.32845,-0.32845 -0.65691,-0.65691 -0.99531,-0.99531c0,-1.64227 0,-3.28453 0,-4.97656z" fill="#f8f5e7"/><path d="M544.07207,291.12461c1.30611,0.0154 2.61223,0.03079 3.95792,0.04666c3.38251,0.20217 3.38251,0.20217 6.36844,1.19749c-0.02159,4.95569 -0.23324,8.04332 -3.48359,11.94375c-3.81043,2.63799 -7.86831,3.28045 -12.44141,2.98594c-4.08291,-1.48469 -5.54457,-2.34498 -7.9625,-5.97187c0.06221,-3.48359 0.06221,-3.48359 0.99531,-6.96719c4.0422,-3.30657 7.46339,-3.33541 12.56582,-3.23477z" fill="#f7f0de"/><path d="M698.71875,274.45313c2.66241,2.15871 3.7946,3.36387 4.78994,6.65615c0.06158,0.75955 0.12317,1.5191 0.18662,2.30166c-0.99531,0.99531 -0.99531,0.99531 -3.5752,1.10831c-1.12064,-0.00521 -2.24128,-0.01042 -3.39587,-0.01579c-1.20925,-0.00321 -2.41849,-0.00642 -3.66438,-0.00972c-1.2734,-0.00834 -2.54679,-0.01668 -3.85878,-0.02527c-1.27725,-0.00449 -2.55449,-0.00898 -3.87044,-0.01361c-3.16807,-0.01178 -6.33605,-0.02818 -9.50407,-0.0486c-0.56229,-1.87544 -0.56229,-1.87544 -0.99531,-3.98125c2.00048,-3.56477 4.89741,-6.33353 8.39795,-8.39795c6.01289,-1.3199 10.24446,-0.83753 15.48955,2.42607z" fill="#faf9f2"/><path d="M498.66094,273.45781c3.94144,0 7.88288,0 11.94375,0c0,0.32845 0,0.65691 0,0.99531c-1.27276,0.12317 -2.54551,0.24634 -3.85684,0.37324c-3.45663,0.31395 -3.45663,0.31395 -6.09629,2.6127c-0.30936,2.38055 -0.30936,2.38055 -0.26438,5.13208c-0.00257,1.01743 -0.00513,2.03487 -0.00778,3.08314c0.0077,1.06619 0.0154,2.13238 0.02333,3.23088c-0.0077,1.06619 -0.0154,2.13238 -0.02333,3.23088c0.00385,1.52615 0.00385,1.52615 0.00778,3.08314c0.00225,0.93596 0.00449,1.87193 0.0068,2.83625c0.03762,2.48983 0.03762,2.48983 2.2482,4.28645c1.97889,0.39578 3.97074,0.7343 5.97188,0.99531c0,0.32845 0,0.65691 0,0.99531c-6.44595,0.36487 -6.44595,0.36487 -8.8334,-1.30635c-2.16487,-3.24731 -2.24267,-6.11232 -2.24723,-9.89481c-0.00128,-1.01423 -0.00257,-2.02845 -0.00389,-3.07342c0.00385,-1.05785 0.0077,-2.1157 0.01166,-3.20561c-0.00385,-1.0617 -0.0077,-2.1234 -0.01166,-3.21727c0.00128,-1.01294 0.00257,-2.02589 0.00389,-3.06953c0.00112,-0.92963 0.00225,-1.85926 0.0034,-2.81706c0.12879,-2.28003 0.12879,-2.28003 1.1241,-4.27066z" fill="#f6edd5"/><path d="M477.75938,273.45781c1.99017,-0.04234 3.98166,-0.04062 5.97188,0c0.99531,0.99531 0.99531,0.99531 1.10831,3.8493c-0.00521,1.24573 -0.01042,2.49146 -0.01579,3.77495c-0.00141,0.66135 -0.00282,1.3227 -0.00427,2.0041c-0.00559,2.11967 -0.01808,4.23923 -0.03072,6.35886c-0.00499,1.434 -0.00953,2.868 -0.01361,4.30201c-0.01099,3.52186 -0.02819,7.04366 -0.0486,10.56548c-0.32845,0 -0.65691,0 -0.99531,0c-0.02494,-0.80365 -0.04988,-1.6073 -0.07557,-2.43531c-0.11518,-3.62584 -0.23744,-7.2514 -0.35988,-10.877c-0.03913,-1.26506 -0.07826,-2.53012 -0.11858,-3.83351c-0.06255,-1.80906 -0.06255,-1.80906 -0.12636,-3.65466c-0.03649,-1.11543 -0.07297,-2.23085 -0.11056,-3.38008c-0.03114,-2.66017 -0.03114,-2.66017 -1.19967,-4.68351c-2.00725,-1.12819 -2.00725,-1.12819 -3.98125,-1.99063z" fill="#f8f2e1"/><path d="M625.06562,209.75781c1.31381,0.32845 2.62763,0.65691 3.98125,0.99531c0,1.31381 0,2.62762 0,3.98125c2.95608,0.49268 2.95608,0.49268 5.97187,0.99531c0,0.32845 0,0.65691 0,0.99531c-1.47275,-0.13984 -2.94488,-0.2862 -4.4167,-0.43545c-0.81985,-0.08083 -1.6397,-0.16166 -2.48439,-0.24494c-2.05672,-0.31492 -2.05672,-0.31492 -3.05203,-1.31024c-0.04045,-1.65836 -0.04252,-3.31825 0,-4.97656z" fill="#f5ecd2"/><path d="M552.40781,278.43438c1.99063,1.99063 1.99063,1.99063 1.99063,5.97188c-3.61298,-0.32845 -7.22597,-0.65691 -10.94844,-0.99531c0,-0.32845 0,-0.65691 0,-0.99531c1.10853,-0.10264 2.21706,-0.20528 3.35918,-0.31104c1.19064,-0.22581 2.38129,-0.45162 3.60801,-0.68428c0.65691,-0.98536 1.31381,-1.97072 1.99063,-2.98594z" fill="#f6edd4"/><path d="M483.73125,249.57031c0.32845,0 0.65691,0 0.99531,0c0.02674,1.96982 0.04612,3.93974 0.06221,5.90967c0.01155,1.09698 0.02309,2.19396 0.03499,3.32419c-0.0972,2.70989 -0.0972,2.70989 -1.09251,3.70521c-1.99021,0.04062 -3.9817,0.04234 -5.97188,0c0.63638,-0.2874 1.27276,-0.57479 1.92842,-0.8709c2.20418,-0.94877 2.20418,-0.94877 3.04814,-3.11035c0.22363,-1.52949 0.40606,-3.06524 0.55986,-4.60332c0.0834,-0.81343 0.16679,-1.62687 0.25272,-2.46495c0.0603,-0.62355 0.1206,-1.2471 0.18273,-1.88954z" fill="#f9f3e3"/><path d="M658.90625,203.78594c0.32845,0 0.65691,0 0.99531,0c0.04875,0.6954 0.09751,1.39079 0.14774,2.10726c0.07442,0.90581 0.14883,1.81162 0.2255,2.74489c0.06928,0.90068 0.13857,1.80136 0.20995,2.72933c0.20876,2.55022 0.20876,2.55022 2.40275,4.36227c-1.97072,0.98536 -1.97072,0.98536 -3.98125,1.99062c0,-4.59834 0,-9.19669 0,-13.93437z" fill="#f7f3e2"/></g>
</svg>